<svg width="512" height="512" viewBox="0 0 512 512" fill="none" xmlns="http://www.w3.org/2000/svg">
<path d="M336 199.36L278.56 256L336 312.64C337.599 314.137 338.873 315.946 339.744 317.955C340.615 319.964 341.065 322.13 341.065 324.32C341.065 326.51 340.615 328.676 339.744 330.686C338.873 332.695 337.599 334.503 336 336C334.505 337.483 332.732 338.656 330.782 339.452C328.833 340.249 326.746 340.652 324.64 340.64C320.443 340.622 316.42 338.956 313.44 336L256 278.56L199.36 336C196.38 338.956 192.357 340.622 188.16 340.64C186.054 340.652 183.967 340.249 182.017 339.452C180.068 338.656 178.295 337.483 176.8 336C173.82 333.002 172.147 328.947 172.147 324.72C172.147 320.493 173.82 316.438 176.8 313.44L233.44 256L176.8 199.36C174.179 196.299 172.809 192.362 172.965 188.335C173.12 184.308 174.789 180.489 177.639 177.639C180.488 174.79 184.308 173.12 188.335 172.965C192.362 172.809 196.299 174.179 199.36 176.8L256 233.44L312.64 176.8C314.121 175.266 315.89 174.039 317.846 173.189C319.801 172.339 321.905 171.882 324.037 171.845C326.169 171.808 328.288 172.191 330.272 172.973C332.256 173.754 334.066 174.919 335.6 176.4C337.134 177.881 338.361 179.65 339.211 181.606C340.061 183.561 340.518 185.665 340.555 187.797C340.592 189.929 340.209 192.048 339.428 194.032C338.646 196.016 337.481 197.826 336 199.36ZM414.4 414.4C383.072 445.725 343.159 467.056 299.708 475.698C256.257 484.339 211.219 479.902 170.29 462.947C129.36 445.992 94.3778 417.282 69.7653 380.445C45.1529 343.609 32.0161 300.302 32.0161 256C32.0161 211.698 45.1529 168.391 69.7653 131.555C94.3778 94.7186 129.36 66.008 170.29 49.0533C211.219 32.0986 256.257 27.6613 299.708 36.3025C343.159 44.9438 383.072 66.2754 414.4 97.6001C435.203 118.401 451.704 143.095 462.963 170.274C474.221 197.452 480.016 226.582 480.016 256C480.016 285.418 474.221 314.548 462.963 341.726C451.704 368.905 435.203 393.599 414.4 414.4ZM391.84 120.16C364.962 93.3751 330.75 75.1551 293.523 67.8007C256.297 60.4464 217.727 64.2875 182.682 78.8391C147.638 93.3907 117.691 118 96.6229 149.56C75.5551 181.12 64.3114 218.214 64.3114 256.16C64.3114 294.106 75.5551 331.201 96.6229 362.76C117.691 394.32 147.638 418.93 182.682 433.481C217.727 448.033 256.297 451.874 293.523 444.519C330.75 437.165 364.962 418.945 391.84 392.16C409.739 374.323 423.942 353.127 433.632 329.789C443.323 306.451 448.311 281.43 448.311 256.16C448.311 230.89 443.323 205.869 433.632 182.531C423.942 159.193 409.739 137.998 391.84 120.16Z" fill="black"/>
</svg>
