<svg width="20" height="20" viewBox="0 0 20 20" fill="none" xmlns="http://www.w3.org/2000/svg">
<g clip-path="url(#clip0_1_11)">
<mask id="mask0_1_11" style="mask-type:luminance" maskUnits="userSpaceOnUse" x="0" y="0" width="20" height="20">
<path d="M20 0H0V20H20V0Z" fill="white"/>
</mask>
<g mask="url(#mask0_1_11)">
<path d="M3.33334 5.83333H16.6667" stroke="#AA0505" stroke-width="1.2" stroke-linecap="round" stroke-linejoin="round"/>
<path d="M8.33334 9.16667V14.1667" stroke="#AA0505" stroke-width="1.2" stroke-linecap="round" stroke-linejoin="round"/>
<path d="M11.6667 9.16667V14.1667" stroke="#AA0505" stroke-width="1.2" stroke-linecap="round" stroke-linejoin="round"/>
<path d="M4.16666 5.83333L5 15.8333C5 16.2754 5.17559 16.6993 5.48815 17.0118C5.80071 17.3244 6.22464 17.5 6.66666 17.5H13.3333C13.7754 17.5 14.1993 17.3244 14.5118 17.0118C14.8244 16.6993 15 16.2754 15 15.8333L15.8333 5.83333" stroke="#AA0505" stroke-width="1.2" stroke-linecap="round" stroke-linejoin="round"/>
<path d="M7.5 5.83333V3.33333C7.5 3.11232 7.5878 2.90036 7.74408 2.74408C7.90036 2.5878 8.11232 2.5 8.33333 2.5H11.6667C11.8877 2.5 12.0996 2.5878 12.2559 2.74408C12.4122 2.90036 12.5 3.11232 12.5 3.33333V5.83333" stroke="#AA0505" stroke-width="1.2" stroke-linecap="round" stroke-linejoin="round"/>
</g>
</g>
<defs>
<clipPath id="clip0_1_11">
<rect width="20" height="20" fill="white"/>
</clipPath>
</defs>
</svg>
