<svg width="24" height="24" viewBox="0 0 24 24" fill="none" xmlns="http://www.w3.org/2000/svg">
<g clip-path="url(#clip0_15_2)">
<mask id="mask0_15_2" style="mask-type:luminance" maskUnits="userSpaceOnUse" x="0" y="0" width="24" height="24">
<path d="M24 0H0V24H24V0Z" fill="white"/>
</mask>
<g mask="url(#mask0_15_2)">
<mask id="mask1_15_2" style="mask-type:luminance" maskUnits="userSpaceOnUse" x="-1" y="-1" width="26" height="26">
<path d="M9.52941 0H14.4706C15.0322 0 15.5709 0.223109 15.968 0.620244C16.3651 1.01738 16.5882 1.55601 16.5882 2.11765V3.52941C16.5882 4.09105 16.3651 4.62968 15.968 5.02681C15.5709 5.42395 15.0322 5.64706 14.4706 5.64706H9.52941C8.96778 5.64706 8.42915 5.42395 8.03201 5.02681C7.63487 4.62968 7.41177 4.09105 7.41177 3.52941V2.11765C7.41177 1.55601 7.63487 1.01738 8.03201 0.620244C8.42915 0.223109 8.96778 0 9.52941 0ZM9.52941 1.41176C9.3422 1.41176 9.16266 1.48613 9.03028 1.61851C8.8979 1.75089 8.82353 1.93044 8.82353 2.11765V3.52941C8.82353 3.71662 8.8979 3.89617 9.03028 4.02855C9.16266 4.16092 9.3422 4.23529 9.52941 4.23529H14.4706C14.6578 4.23529 14.8373 4.16092 14.9697 4.02855C15.1021 3.89617 15.1765 3.71662 15.1765 3.52941V2.11765C15.1765 1.93044 15.1021 1.75089 14.9697 1.61851C14.8373 1.48613 14.6578 1.41176 14.4706 1.41176H9.52941ZM9.52941 18.3529H14.4706C15.0322 18.3529 15.5709 18.5761 15.968 18.9732C16.3651 19.3703 16.5882 19.909 16.5882 20.4706V21.8824C16.5882 22.444 16.3651 22.9826 15.968 23.3798C15.5709 23.7769 15.0322 24 14.4706 24H9.52941C8.96778 24 8.42915 23.7769 8.03201 23.3798C7.63487 22.9826 7.41177 22.444 7.41177 21.8824V20.4706C7.41177 19.909 7.63487 19.3703 8.03201 18.9732C8.42915 18.5761 8.96778 18.3529 9.52941 18.3529ZM9.52941 19.7647C9.3422 19.7647 9.16266 19.8391 9.03028 19.9715C8.8979 20.1038 8.82353 20.2834 8.82353 20.4706V21.8824C8.82353 22.0696 8.8979 22.2491 9.03028 22.3815C9.16266 22.5139 9.3422 22.5882 9.52941 22.5882H14.4706C14.6578 22.5882 14.8373 22.5139 14.9697 22.3815C15.1021 22.2491 15.1765 22.0696 15.1765 21.8824V20.4706C15.1765 20.2834 15.1021 20.1038 14.9697 19.9715C14.8373 19.8391 14.6578 19.7647 14.4706 19.7647H9.52941ZM9.52941 9.17647H14.4706C15.0322 9.17647 15.5709 9.39958 15.968 9.79671C16.3651 10.1939 16.5882 10.7325 16.5882 11.2941V12.7059C16.5882 13.2675 16.3651 13.8061 15.968 14.2033C15.5709 14.6004 15.0322 14.8235 14.4706 14.8235H9.52941C8.96778 14.8235 8.42915 14.6004 8.03201 14.2033C7.63487 13.8061 7.41177 13.2675 7.41177 12.7059V11.2941C7.41177 10.7325 7.63487 10.1939 8.03201 9.79671C8.42915 9.39958 8.96778 9.17647 9.52941 9.17647ZM9.52941 10.5882C9.3422 10.5882 9.16266 10.6626 9.03028 10.795C8.8979 10.9274 8.82353 11.1069 8.82353 11.2941V12.7059C8.82353 12.8931 8.8979 13.0726 9.03028 13.205C9.16266 13.3374 9.3422 13.4118 9.52941 13.4118H14.4706C14.6578 13.4118 14.8373 13.3374 14.9697 13.205C15.1021 13.0726 15.1765 12.8931 15.1765 12.7059V11.2941C15.1765 11.1069 15.1021 10.9274 14.9697 10.795C14.8373 10.6626 14.6578 10.5882 14.4706 10.5882H9.52941ZM3.87529 21.69C1.62706 21.0671 0 19.0059 0 16.5882C0 13.6645 2.37035 11.2941 5.29412 11.2941H5.64706C5.83427 11.2941 6.01381 11.3685 6.14619 11.5009C6.27857 11.6332 6.35294 11.8128 6.35294 12C6.35294 12.1872 6.27857 12.3668 6.14619 12.4991C6.01381 12.6315 5.83427 12.7059 5.64706 12.7059H5.29412C3.15 12.7059 1.41176 14.4441 1.41176 16.5882C1.41176 18.3875 2.64212 19.9186 4.32776 20.3495L3.98294 19.7749C3.88662 19.6144 3.85802 19.4222 3.90342 19.2406C3.94883 19.0589 4.06453 18.9028 4.22506 18.8065C4.38559 18.7102 4.57782 18.6815 4.75944 18.727C4.94106 18.7724 5.09721 18.8881 5.19353 19.0486L6.25235 20.8133C6.34016 20.9598 6.37188 21.1331 6.34164 21.3012C6.3114 21.4693 6.22124 21.6207 6.08788 21.7274L4.32318 23.1392C4.1766 23.2515 3.99183 23.3019 3.8085 23.2796C3.62518 23.2573 3.45789 23.1641 3.34254 23.0198C3.22718 22.8756 3.17294 22.6919 3.19144 22.5082C3.20995 22.3244 3.29973 22.1553 3.44153 22.0369L3.87529 21.69ZM20.1247 12.5135L20.5588 12.8605C20.6312 12.9184 20.6915 12.99 20.7362 13.0713C20.7809 13.1525 20.8092 13.2417 20.8194 13.3339C20.8297 13.4261 20.8216 13.5193 20.7958 13.6084C20.77 13.6974 20.7269 13.7805 20.6689 13.8529C20.611 13.9253 20.5394 13.9856 20.4581 14.0303C20.3769 14.075 20.2877 14.1033 20.1955 14.1135C20.1034 14.1238 20.0101 14.1157 19.921 14.0899C19.832 14.0641 19.7489 14.021 19.6765 13.9631L17.9118 12.5513C17.7784 12.4445 17.6882 12.293 17.658 12.1249C17.6279 11.9567 17.6597 11.7833 17.7476 11.6368L18.8065 9.87212C18.9028 9.71158 19.0589 9.59589 19.2406 9.55048C19.4222 9.50508 19.6144 9.53368 19.7749 9.63C19.9355 9.72632 20.0512 9.88247 20.0966 10.0641C20.142 10.2457 20.1134 10.4379 20.0171 10.5985L19.6722 11.1731C20.5065 10.9581 21.2457 10.472 21.7736 9.79116C22.3014 9.11029 22.588 8.27329 22.5882 7.41177C22.5882 5.26765 20.85 3.52941 18.7059 3.52941H18.3529C18.1657 3.52941 17.9862 3.45504 17.8538 3.32266C17.7214 3.19028 17.6471 3.01074 17.6471 2.82353C17.6471 2.63632 17.7214 2.45677 17.8538 2.3244C17.9862 2.19202 18.1657 2.11765 18.3529 2.11765H18.7059C21.6296 2.11765 24 4.488 24 7.41177C24 9.82835 22.3733 11.8906 20.1247 12.5135Z" fill="black" stroke="white" stroke-width="0.4"/>
</mask>
<g mask="url(#mask1_15_2)">
<path d="M9.52941 0H14.4706C15.0322 0 15.5709 0.223109 15.968 0.620244C16.3651 1.01738 16.5882 1.55601 16.5882 2.11765V3.52941C16.5882 4.09105 16.3651 4.62968 15.968 5.02681C15.5709 5.42395 15.0322 5.64706 14.4706 5.64706H9.52941C8.96778 5.64706 8.42915 5.42395 8.03201 5.02681C7.63487 4.62968 7.41177 4.09105 7.41177 3.52941V2.11765C7.41177 1.55601 7.63487 1.01738 8.03201 0.620244C8.42915 0.223109 8.96778 0 9.52941 0ZM9.52941 1.41176C9.3422 1.41176 9.16266 1.48613 9.03028 1.61851C8.8979 1.75089 8.82353 1.93044 8.82353 2.11765V3.52941C8.82353 3.71662 8.8979 3.89617 9.03028 4.02855C9.16266 4.16092 9.3422 4.23529 9.52941 4.23529H14.4706C14.6578 4.23529 14.8373 4.16092 14.9697 4.02855C15.1021 3.89617 15.1765 3.71662 15.1765 3.52941V2.11765C15.1765 1.93044 15.1021 1.75089 14.9697 1.61851C14.8373 1.48613 14.6578 1.41176 14.4706 1.41176H9.52941ZM9.52941 18.3529H14.4706C15.0322 18.3529 15.5709 18.5761 15.968 18.9732C16.3651 19.3703 16.5882 19.909 16.5882 20.4706V21.8824C16.5882 22.444 16.3651 22.9826 15.968 23.3798C15.5709 23.7769 15.0322 24 14.4706 24H9.52941C8.96778 24 8.42915 23.7769 8.03201 23.3798C7.63487 22.9826 7.41177 22.444 7.41177 21.8824V20.4706C7.41177 19.909 7.63487 19.3703 8.03201 18.9732C8.42915 18.5761 8.96778 18.3529 9.52941 18.3529ZM9.52941 19.7647C9.3422 19.7647 9.16266 19.8391 9.03028 19.9715C8.8979 20.1038 8.82353 20.2834 8.82353 20.4706V21.8824C8.82353 22.0696 8.8979 22.2491 9.03028 22.3815C9.16266 22.5139 9.3422 22.5882 9.52941 22.5882H14.4706C14.6578 22.5882 14.8373 22.5139 14.9697 22.3815C15.1021 22.2491 15.1765 22.0696 15.1765 21.8824V20.4706C15.1765 20.2834 15.1021 20.1038 14.9697 19.9715C14.8373 19.8391 14.6578 19.7647 14.4706 19.7647H9.52941ZM9.52941 9.17647H14.4706C15.0322 9.17647 15.5709 9.39958 15.968 9.79671C16.3651 10.1939 16.5882 10.7325 16.5882 11.2941V12.7059C16.5882 13.2675 16.3651 13.8061 15.968 14.2033C15.5709 14.6004 15.0322 14.8235 14.4706 14.8235H9.52941C8.96778 14.8235 8.42915 14.6004 8.03201 14.2033C7.63487 13.8061 7.41177 13.2675 7.41177 12.7059V11.2941C7.41177 10.7325 7.63487 10.1939 8.03201 9.79671C8.42915 9.39958 8.96778 9.17647 9.52941 9.17647ZM9.52941 10.5882C9.3422 10.5882 9.16266 10.6626 9.03028 10.795C8.8979 10.9274 8.82353 11.1069 8.82353 11.2941V12.7059C8.82353 12.8931 8.8979 13.0726 9.03028 13.205C9.16266 13.3374 9.3422 13.4118 9.52941 13.4118H14.4706C14.6578 13.4118 14.8373 13.3374 14.9697 13.205C15.1021 13.0726 15.1765 12.8931 15.1765 12.7059V11.2941C15.1765 11.1069 15.1021 10.9274 14.9697 10.795C14.8373 10.6626 14.6578 10.5882 14.4706 10.5882H9.52941ZM3.87529 21.69C1.62706 21.0671 0 19.0059 0 16.5882C0 13.6645 2.37035 11.2941 5.29412 11.2941H5.64706C5.83427 11.2941 6.01381 11.3685 6.14619 11.5009C6.27857 11.6332 6.35294 11.8128 6.35294 12C6.35294 12.1872 6.27857 12.3668 6.14619 12.4991C6.01381 12.6315 5.83427 12.7059 5.64706 12.7059H5.29412C3.15 12.7059 1.41176 14.4441 1.41176 16.5882C1.41176 18.3875 2.64212 19.9186 4.32776 20.3495L3.98294 19.7749C3.88662 19.6144 3.85802 19.4222 3.90342 19.2406C3.94883 19.0589 4.06453 18.9028 4.22506 18.8065C4.38559 18.7102 4.57782 18.6815 4.75944 18.727C4.94106 18.7724 5.09721 18.8881 5.19353 19.0486L6.25235 20.8133C6.34016 20.9598 6.37188 21.1331 6.34164 21.3012C6.3114 21.4693 6.22124 21.6207 6.08788 21.7274L4.32318 23.1392C4.1766 23.2515 3.99183 23.3019 3.8085 23.2796C3.62518 23.2573 3.45789 23.1641 3.34254 23.0198C3.22718 22.8756 3.17294 22.6919 3.19144 22.5082C3.20995 22.3244 3.29973 22.1553 3.44153 22.0369L3.87529 21.69ZM20.1247 12.5135L20.5588 12.8605C20.6312 12.9184 20.6915 12.99 20.7362 13.0713C20.7809 13.1525 20.8092 13.2417 20.8194 13.3339C20.8297 13.4261 20.8216 13.5193 20.7958 13.6084C20.77 13.6974 20.7269 13.7805 20.6689 13.8529C20.611 13.9253 20.5394 13.9856 20.4581 14.0303C20.3769 14.075 20.2877 14.1033 20.1955 14.1135C20.1034 14.1238 20.0101 14.1157 19.921 14.0899C19.832 14.0641 19.7489 14.021 19.6765 13.9631L17.9118 12.5513C17.7784 12.4445 17.6882 12.293 17.658 12.1249C17.6279 11.9567 17.6597 11.7833 17.7476 11.6368L18.8065 9.87212C18.9028 9.71158 19.0589 9.59589 19.2406 9.55048C19.4222 9.50508 19.6144 9.53368 19.7749 9.63C19.9355 9.72632 20.0512 9.88247 20.0966 10.0641C20.142 10.2457 20.1134 10.4379 20.0171 10.5985L19.6722 11.1731C20.5065 10.9581 21.2457 10.472 21.7736 9.79116C22.3014 9.11029 22.588 8.27329 22.5882 7.41177C22.5882 5.26765 20.85 3.52941 18.7059 3.52941H18.3529C18.1657 3.52941 17.9862 3.45504 17.8538 3.32266C17.7214 3.19028 17.6471 3.01074 17.6471 2.82353C17.6471 2.63632 17.7214 2.45677 17.8538 2.3244C17.9862 2.19202 18.1657 2.11765 18.3529 2.11765H18.7059C21.6296 2.11765 24 4.488 24 7.41177C24 9.82835 22.3733 11.8906 20.1247 12.5135Z" fill="black" stroke="white" stroke-width="0.4"/>
</g>
</g>
</g>
<defs>
<clipPath id="clip0_15_2">
<rect width="24" height="24" fill="white"/>
</clipPath>
</defs>
</svg>
