<svg width="172" height="22" viewBox="0 0 172 22" fill="none" xmlns="http://www.w3.org/2000/svg">
<path d="M49.5134 10.8955C50.0675 11.1598 50.5537 11.5479 50.9344 12.0298C51.2617 12.4352 51.4797 12.9177 51.5679 13.4314C51.656 13.9451 51.6113 14.4728 51.4379 14.9643C51.2691 15.4697 50.9895 15.931 50.6196 16.3144C50.1892 16.7447 49.6706 17.0764 49.0997 17.2865C48.4225 17.5461 47.7022 17.6745 46.9771 17.6649C46.055 17.6537 45.1477 17.4318 44.3244 17.0161C43.4586 16.6063 42.6939 16.0102 42.085 15.2704L43.9735 13.5961C44.4493 14.1769 45.0609 14.6314 45.7541 14.9191C46.3226 15.1552 46.9395 15.2509 47.5528 15.1982C47.9783 15.1851 48.3831 15.0114 48.686 14.7119C48.8067 14.5902 48.887 14.4342 48.916 14.2652C48.945 14.0961 48.9212 13.9223 48.8479 13.7672C48.6277 13.3429 48.2548 13.018 47.8045 12.8583L45.2506 11.7059C44.3776 11.381 43.6139 10.8162 43.0473 10.0764C42.8098 9.75329 42.6457 9.38218 42.5664 8.98899C42.4872 8.59579 42.4947 8.19004 42.5884 7.80006C42.6739 7.33602 42.8547 6.89479 43.1194 6.50435C43.3842 6.11392 43.7271 5.78277 44.1264 5.53193C44.9494 5.00307 45.9094 4.72753 46.8873 4.73951C47.7784 4.73238 48.6589 4.93275 49.4593 5.32472C50.2239 5.69469 50.9083 6.21157 51.4736 6.84595L49.5851 8.50218C49.2401 8.12274 48.8471 7.78989 48.4162 7.51198C48.065 7.27106 47.6615 7.11757 47.2391 7.06432C46.8167 7.01107 46.3877 7.0596 45.9878 7.20584C45.4482 7.39816 45.1607 7.69825 45.1251 8.10616C45.077 8.46593 45.2808 8.79 45.7364 9.07834C45.9906 9.23927 46.2549 9.38347 46.5277 9.51005C46.8754 9.67829 47.2142 9.8374 47.5441 9.98732L48.6323 10.4822C49.0275 10.6617 49.3212 10.7995 49.5134 10.8955Z" fill="#191919"/>
<path d="M55.6102 11.5255H56.5995L56.8693 11.0757L58.9558 7.69103H61.8155L58.7569 12.606L61.9226 17.5025H59.0636L56.8332 14.046L56.5814 13.668H55.6102V17.5025H53.1641V4.66861H55.6102V11.5255Z" fill="#191919"/>
<path d="M63.4093 9.02401C64.1166 8.31742 65.0174 7.83658 65.9977 7.64226C66.978 7.44793 67.9939 7.54883 68.9169 7.93225C69.84 8.31567 70.6287 8.96438 71.1835 9.79636C71.7382 10.6283 72.0341 11.6063 72.0337 12.6065C72.0334 12.8958 72.0094 13.1846 71.9619 13.47H64.5327C64.7085 13.9779 65.0392 14.4177 65.478 14.7275C65.9169 15.0374 66.4418 15.2015 66.9788 15.1969C67.3857 15.2089 67.7892 15.1199 68.1533 14.9377C68.5174 14.7555 68.8308 14.4859 69.0653 14.1529H71.8008C71.4766 15.1689 70.837 16.0549 69.975 16.682C69.2208 17.2345 68.3284 17.5672 67.3967 17.6431C66.4651 17.719 65.5307 17.5351 64.6971 17.1119C63.8635 16.6887 63.1633 16.0427 62.6742 15.2455C62.185 14.4483 61.926 13.5311 61.9259 12.5955C61.9154 11.9302 62.0416 11.2699 62.2968 10.6555C62.552 10.0411 62.9306 9.48576 63.4093 9.02401ZM64.7131 11.3282H69.2637C69.0917 11.0252 68.8613 10.7594 68.5858 10.5462C68.3104 10.3331 67.9954 10.1768 67.6591 10.0864C67.3228 9.99596 66.972 9.9733 66.6269 10.0197C66.2818 10.066 65.9493 10.1805 65.6487 10.3565C65.2512 10.5854 64.9265 10.9223 64.7123 11.3282H64.7131Z" fill="#191919"/>
<path d="M75.9353 13.8838C75.892 14.1838 75.9358 14.4899 76.0615 14.7657C76.1689 14.9944 76.3583 15.1745 76.5921 15.27C76.8585 15.3714 77.1436 15.4143 77.4281 15.3956C77.7891 15.3778 78.146 15.3118 78.4895 15.1994V17.4318C77.6167 17.6793 76.6968 17.7101 75.8094 17.5217C75.1426 17.3374 74.5529 16.9428 74.1279 16.3964C73.6976 15.8379 73.4721 15.1483 73.4892 14.4431V5.40598H75.9353V7.69212H78.4895V9.83463H75.9353V13.8838Z" fill="#191919"/>
<path d="M81.4571 12.6062C81.4564 13.0632 81.5768 13.5122 81.8059 13.9075C82.035 14.3028 82.3646 14.6303 82.7613 14.8567C83.1583 15.0834 83.608 15.2013 84.0651 15.1985C84.428 15.2057 84.7881 15.1337 85.1205 14.9876C85.4528 14.8415 85.7494 14.6247 85.9896 14.3523L87.7883 16.0266C87.3167 16.5339 86.7479 16.9412 86.1159 17.2241C85.3461 17.5658 84.5033 17.7096 83.6639 17.6426C82.8245 17.5755 82.0151 17.2995 81.3093 16.8399C80.6035 16.3802 80.0235 15.7514 79.6222 15.0105C79.2208 14.2695 79.0107 13.44 79.011 12.5972C79.0124 11.2568 79.5457 9.9719 80.4934 9.02497C81.4412 8.07805 82.7259 7.54665 84.0651 7.54759C84.7715 7.5447 85.4705 7.69184 86.1159 7.9793C86.7519 8.25928 87.3218 8.67037 87.7883 9.18576L85.9896 10.842C85.6343 10.4544 85.1704 10.1831 84.6585 10.0638C84.1466 9.94454 83.6107 9.98271 83.1209 10.1734C82.631 10.364 82.2101 10.6983 81.9132 11.1324C81.6164 11.5665 81.4574 12.0802 81.4571 12.6062Z" fill="#191919"/>
<path d="M91.2123 8.6094L92.9929 7.58309C93.196 7.55927 93.4002 7.54736 93.6046 7.5474C94.2401 7.54714 94.8693 7.67223 95.4564 7.91548C96.0436 8.15874 96.577 8.51538 97.0264 8.96509C97.4757 9.41478 97.8321 9.9487 98.0752 10.5363C98.3182 11.1239 98.4433 11.7538 98.4431 12.3898V17.5025H95.9785V12.3898C95.9835 12.0755 95.9247 11.7636 95.8058 11.4728C95.6868 11.1819 95.5102 10.9183 95.2865 10.6978C95.0696 10.471 94.8083 10.2916 94.5189 10.1708C94.2294 10.0499 93.9182 9.99032 93.6046 9.99567C92.9705 9.9965 92.3626 10.249 91.9142 10.6978C91.4658 11.1466 91.2135 11.7551 91.2127 12.3898V17.5025H88.7666V4.66861H91.2127L91.2123 8.6094Z" fill="#191919"/>
<path d="M113.388 11.0126C113.827 11.3436 114.184 11.7719 114.431 12.2638C114.682 12.7574 114.811 13.3036 114.809 13.8573C114.816 14.3401 114.72 14.8189 114.53 15.2624C114.339 15.706 114.057 16.1044 113.703 16.4315C113.353 16.7759 112.938 17.0471 112.483 17.2295C112.027 17.4118 111.54 17.5016 111.05 17.4935H104.972V4.89201H110.746C111.454 4.89061 112.148 5.09721 112.741 5.48627C113.334 5.87534 113.8 6.42978 114.081 7.08104C114.362 7.7323 114.447 8.45182 114.324 9.15059C114.201 9.84935 113.876 10.4967 113.389 11.0126H113.388ZM107.416 7.33985V9.96945H110.618C110.967 9.96945 111.301 9.83093 111.547 9.58436C111.793 9.33779 111.932 9.00333 111.932 8.65463C111.932 8.30592 111.793 7.97151 111.547 7.72494C111.301 7.47837 110.967 7.33985 110.618 7.33985H107.416ZM111.05 15.0449C111.398 15.0431 111.73 14.9042 111.976 14.6581C112.222 14.4121 112.361 14.0789 112.363 13.7309C112.365 13.4994 112.303 13.2719 112.183 13.0739C112.065 12.8783 111.902 12.7146 111.706 12.5971C111.509 12.477 111.281 12.4146 111.05 12.4169H107.416V15.0465L111.05 15.0449Z" fill="#191919"/>
<path d="M118.739 8.60118L120.52 7.57525C120.723 7.55126 120.927 7.53924 121.131 7.53917C121.793 7.53733 122.448 7.6721 123.056 7.93514L122.588 10.4917C122.229 10.2089 121.8 10.0285 121.347 9.96977C120.926 9.90578 120.495 9.95229 120.097 10.1048C119.698 10.2731 119.361 10.5626 119.135 10.9325C118.862 11.3658 118.725 11.8702 118.739 12.3819V17.4947H116.293V7.68281H118.739V8.60118Z" fill="#191919"/>
<path d="M123.207 12.5974C123.204 11.9324 123.333 11.2735 123.587 10.6586C123.84 10.0438 124.212 9.48512 124.682 9.01488C125.152 8.54465 125.71 8.17213 126.324 7.91871C126.938 7.6653 127.597 7.53603 128.261 7.53836C128.562 7.53868 128.863 7.56268 129.16 7.61018L130.869 8.60042V7.68242H133.315V17.4943H130.869V16.5939L129.16 17.5661C128.864 17.6259 128.563 17.6561 128.261 17.6564C126.922 17.6529 125.638 17.1189 124.691 16.171C123.744 15.2231 123.21 13.9384 123.207 12.5977V12.5974ZM126.417 10.7528C126.171 10.9917 125.976 11.2786 125.844 11.5959C125.713 11.9131 125.648 12.254 125.653 12.5974C125.647 12.9396 125.712 13.2793 125.844 13.5953C125.975 13.9112 126.17 14.1965 126.417 14.4334C126.909 14.9175 127.571 15.1889 128.26 15.1889C128.95 15.1889 129.612 14.9175 130.103 14.4334C130.35 14.1966 130.546 13.9113 130.677 13.5953C130.809 13.2794 130.874 12.9396 130.868 12.5974C130.868 12.0812 130.715 11.5766 130.428 11.1475C130.142 10.7183 129.734 10.3839 129.258 10.1865C128.781 9.98902 128.257 9.93744 127.751 10.0382C127.245 10.139 126.781 10.3877 126.416 10.7528H126.417Z" fill="#191919"/>
<path d="M137.384 8.6018L139.164 7.57586C139.367 7.55189 139.571 7.53987 139.776 7.53979C140.411 7.53943 141.041 7.66444 141.628 7.90768C142.215 8.15093 142.748 8.50762 143.198 8.95738C143.647 9.40714 144.004 9.94115 144.247 10.5289C144.49 11.1166 144.614 11.7465 144.614 12.3825V17.4953H142.15V12.3813C142.155 12.067 142.096 11.755 141.977 11.4641C141.858 11.1732 141.681 10.9095 141.458 10.689C141.241 10.4623 140.979 10.2829 140.69 10.1622C140.4 10.0414 140.089 9.98185 139.776 9.98724C139.141 9.98787 138.533 10.2403 138.085 10.6892C137.637 11.138 137.384 11.7466 137.384 12.3813V17.4941H134.937V4.66019H137.384V8.6018Z" fill="#191919"/>
<path d="M148.451 8.17038V8.60209L150.232 7.57616C150.825 7.50325 151.427 7.59027 151.976 7.82816C152.544 8.07134 153.053 8.43346 153.469 8.89017C153.822 8.49623 154.247 8.17252 154.719 7.93605C155.154 7.71577 155.627 7.58136 156.113 7.54008C156.586 7.50465 157.061 7.53489 157.525 7.62996C157.993 7.7243 158.439 7.90775 158.838 8.17038C159.236 8.43166 159.599 8.74308 159.917 9.097C160.243 9.46617 160.496 9.89382 160.662 10.3573C160.843 10.8503 160.934 11.3717 160.932 11.8969V17.4956H158.467V11.8969C158.476 11.5321 158.379 11.1726 158.189 10.8616C158.023 10.5867 157.783 10.3648 157.496 10.2222C157.212 10.0891 156.902 10.022 156.588 10.026C156.271 10.0227 155.958 10.0897 155.67 10.2222C155.381 10.3611 155.138 10.5798 154.969 10.8525C154.776 11.1659 154.679 11.529 154.69 11.8969V17.4956H152.244V11.8969C152.244 11.426 152.069 10.9719 151.753 10.6227C151.438 10.2735 151.004 10.054 150.536 10.0067H150.356C150.105 10.0024 149.857 10.0488 149.625 10.1432C149.393 10.2377 149.183 10.3782 149.007 10.5562C148.826 10.7292 148.683 10.9377 148.587 11.1686C148.492 11.3994 148.444 11.6477 148.449 11.8977V17.4963H146.003V7.68448H148.449L148.451 8.17038Z" fill="#191919"/>
<path d="M161.893 12.5974C161.89 11.9324 162.02 11.2735 162.273 10.6587C162.526 10.0438 162.898 9.48517 163.368 9.01493C163.838 8.54469 164.396 8.17213 165.01 7.91871C165.624 7.6653 166.283 7.53603 166.947 7.53836C167.248 7.53868 167.549 7.56268 167.846 7.61018L169.555 8.60042V7.68242H172.001V17.4943H169.555V16.5939L167.846 17.5661C167.55 17.6259 167.249 17.6561 166.947 17.6564C165.608 17.6531 164.324 17.119 163.377 16.1711C162.43 15.2231 161.896 13.9384 161.893 12.5977V12.5974ZM165.103 10.7528C164.857 10.9917 164.662 11.2786 164.53 11.5959C164.399 11.9131 164.334 12.254 164.339 12.5974C164.333 12.9396 164.398 13.2793 164.529 13.5953C164.661 13.9112 164.856 14.1965 165.103 14.4334C165.595 14.9175 166.257 15.1889 166.946 15.1889C167.636 15.1889 168.298 14.9175 168.789 14.4334C169.036 14.1965 169.231 13.9112 169.363 13.5952C169.494 13.2793 169.559 12.9396 169.553 12.5974C169.553 12.0812 169.4 11.5766 169.114 11.1475C168.827 10.7183 168.42 10.3839 167.943 10.1865C167.467 9.98902 166.942 9.93744 166.437 10.0382C165.931 10.139 165.466 10.3877 165.102 10.7528H165.103Z" fill="#191919"/>
<path d="M31.3118 14.8037L24.788 21.3336L19.7108 16.2558L26.235 9.72622C26.5682 9.39262 26.9639 9.12796 27.3993 8.94741C27.8348 8.76686 28.3015 8.67394 28.7728 8.67394C29.2441 8.67394 29.7108 8.76686 30.1463 8.94741C30.5817 9.12796 30.9774 9.39262 31.3106 9.72622C31.9831 10.3996 32.361 11.3126 32.3612 12.2647C32.3614 13.2168 31.984 14.13 31.3118 14.8037ZM24.3838 2.79396C24.0505 2.46035 23.6549 2.19569 23.2194 2.01514C22.784 1.83459 22.3173 1.74167 21.8459 1.74167C21.3746 1.74167 20.9079 1.83459 20.4724 2.01514C20.037 2.19569 19.6413 2.46035 19.3081 2.79396L5.8484 16.2656L10.9241 21.3458L24.3838 7.87414C24.7171 7.54059 24.9815 7.14457 25.1618 6.70874C25.3422 6.2729 25.4351 5.80577 25.4351 5.33402C25.4351 4.86227 25.3422 4.39514 25.1618 3.95931C24.9815 3.52347 24.7171 3.12751 24.3838 2.79396ZM6.12602 12.2644L12.6502 5.73474L7.57414 0.654175L1.05036 7.18414C0.717048 7.51769 0.452648 7.91371 0.272259 8.34954C0.09187 8.78538 -0.000976562 9.25251 -0.000976562 9.72426C-0.000976562 10.196 0.09187 10.6631 0.272259 11.099C0.452648 11.5348 0.717048 11.9308 1.05036 12.2644C1.38374 12.5979 1.77949 12.8623 2.21501 13.0427C2.65052 13.2231 3.11726 13.3158 3.58859 13.3156C4.05992 13.3155 4.5266 13.2223 4.96197 13.0416C5.39735 12.8609 5.7929 12.5961 6.12602 12.2624V12.2644Z" fill="#191919"/>
</svg>
